{
  "accessors": [
    {
      "bufferView": 2,
      "componentType": 5126,
      "count": 27260,
      "max": [
        152.35006713867188,
        16.542139053344727,
        30.273147583007813
      ],
      "min": [
        93.22624206542969,
        -29.077224731445313,
        -16.49293327331543
      ],
      "type": "VEC3"
    },
    {
      "bufferView": 2,
      "byteOffset": 327120,
      "componentType": 5126,
      "count": 27260,
      "max": [
        0.9999953508377075,
        0.9999470114707947,
        0.9999988079071045
      ],
      "min": [
        -0.9999222755432129,
        -0.9999977350234985,
        -0.999973714351654
      ],
      "type": "VEC3"
    },
    {
      "bufferView": 1,
      "componentType": 5126,
      "count": 27260,
      "max": [
        0.9987639784812927,
        0.992823600769043
      ],
      "min": [
        0.001216190168634057,
        0.016263067722320557
      ],
      "type": "VEC2"
    },
    {
      "bufferView": 0,
      "componentType": 5125,
      "count": 148359,
      "type": "SCALAR"
    },
    {
      "bufferView": 2,
      "byteOffset": 654240,
      "componentType": 5126,
      "count": 19735,
      "max": [
        152.30455017089844,
        16.526762008666992,
        30.223154067993164
      ],
      "min": [
        93.27259063720703,
        -29.03385353088379,
        -16.471729278564453
      ],
      "type": "VEC3"
    },
    {
      "bufferView": 2,
      "byteOffset": 891060,
      "componentType": 5126,
      "count": 19735,
      "max": [
        0.999925971031189,
        0.999990701675415,
        0.9999377727508545
      ],
      "min": [
        -0.9994955062866211,
        -0.999907374382019,
        -0.9999985694885254
      ],
      "type": "VEC3"
    },
    {
      "bufferView": 1,
      "byteOffset": 218080,
      "componentType": 5126,
      "count": 19735,
      "max": [
        0.9987639784812927,
        0.992823600769043
      ],
      "min": [
        0.001216190168634057,
        0.016263067722320557
      ],
      "type": "VEC2"
    },
    {
      "bufferView": 0,
      "byteOffset": 593436,
      "componentType": 5125,
      "count": 112323,
      "type": "SCALAR"
    },
    {
      "bufferView": 2,
      "byteOffset": 1127880,
      "componentType": 5126,
      "count": 65532,
      "max": [
        151.858154296875,
        11.175495147705078,
        20.661605834960938
      ],
      "min": [
        97.87535095214844,
        -15.86292839050293,
        -11.304673194885254
      ],
      "type": "VEC3"
    },
    {
      "bufferView": 2,
      "byteOffset": 1914264,
      "componentType": 5126,
      "count": 65532,
      "max": [
        0.9999884366989136,
        0.9999614953994751,
        0.9999793171882629
      ],
      "min": [
        -0.9999691247940063,
        -0.9999940395355225,
        -0.9998758435249329
      ],
      "type": "VEC3"
    },
    {
      "bufferView": 1,
      "byteOffset": 375960,
      "componentType": 5126,
      "count": 65532,
      "max": [
        0.9129999876022339,
        0.5843999981880188
      ],
      "min": [
        0.08699999749660492,
        0.4196999967098236
      ],
      "type": "VEC2"
    },
    {
      "bufferView": 0,
      "byteOffset": 1042728,
      "componentType": 5125,
      "count": 435363,
      "type": "SCALAR"
    },
    {
      "bufferView": 2,
      "byteOffset": 2700648,
      "componentType": 5126,
      "count": 16422,
      "max": [
        105.48450469970703,
        11.163333892822266,
        21.000959396362305
      ],
      "min": [
        97.71072387695313,
        -10.357169151306152,
        -11.120277404785156
      ],
      "type": "VEC3"
    },
    {
      "bufferView": 2,
      "byteOffset": 2897712,
      "componentType": 5126,
      "count": 16422,
      "max": [
        0.999749481678009,
        0.9947963356971741,
        0.9999613165855408
      ],
      "min": [
        -0.9998345971107483,
        -0.9976610541343689,
        -0.9972964525222778
      ],
      "type": "VEC3"
    },
    {
      "bufferView": 1,
      "byteOffset": 900216,
      "componentType": 5126,
      "count": 16422,
      "max": [
        0.9129999876022339,
        0.5843999981880188
      ],
      "min": [
        0.08699999749660492,
        0.4196999967098236
      ],
      "type": "VEC2"
    },
    {
      "bufferView": 0,
      "byteOffset": 2784180,
      "componentType": 5125,
      "count": 87705,
      "type": "SCALAR"
    },
    {
      "bufferView": 2,
      "byteOffset": 3094776,
      "componentType": 5126,
      "count": 31376,
      "max": [
        139.50222778320313,
        16.425411224365234,
        29.31189727783203
      ],
      "min": [
        125.04387664794922,
        -29.02100372314453,
        -16.512357711791992
      ],
      "type": "VEC3"
    },
    {
      "bufferView": 2,
      "byteOffset": 3471288,
      "componentType": 5126,
      "count": 31376,
      "max": [
        0.9999087452888489,
        0.9999057650566101,
        0.9999416470527649
      ],
      "min": [
        -0.9999779462814331,
        -0.9999975562095642,
        -0.9999994039535522
      ],
      "type": "VEC3"
    },
    {
      "bufferView": 1,
      "byteOffset": 1031592,
      "componentType": 5126,
      "count": 31376,
      "max": [
        0.9129629731178284,
        0.5843769907951355
      ],
      "min": [
        0.08703699707984924,
        0.4196609854698181
      ],
      "type": "VEC2"
    },
    {
      "bufferView": 0,
      "byteOffset": 3135000,
      "componentType": 5125,
      "count": 161616,
      "type": "SCALAR"
    },
    {
      "bufferView": 2,
      "byteOffset": 3847800,
      "componentType": 5126,
      "count": 55014,
      "max": [
        151.59146118164063,
        16.262788772583008,
        29.20035171508789
      ],
      "min": [
        125.16541290283203,
        -28.857460021972656,
        -16.442296981811523
      ],
      "type": "VEC3"
    },
    {
      "bufferView": 2,
      "byteOffset": 4507968,
      "componentType": 5126,
      "count": 55014,
      "max": [
        0.9999876022338867,
        0.9999904632568359,
        0.9999910593032837
      ],
      "min": [
        -0.9999977350234985,
        -0.9999740719795227,
        -0.9999284148216248
      ],
      "type": "VEC3"
    },
    {
      "bufferView": 1,
      "byteOffset": 1282600,
      "componentType": 5126,
      "count": 55014,
      "max": [
        0.9129629731178284,
        0.5843769907951355
      ],
      "min": [
        0.08703699707984924,
        0.4196609854698181
      ],
      "type": "VEC2"
    },
    {
      "bufferView": 0,
      "byteOffset": 3781464,
      "componentType": 5125,
      "count": 283374,
      "type": "SCALAR"
    },
    {
      "bufferView": 2,
      "byteOffset": 5168136,
      "componentType": 5126,
      "count": 22790,
      "max": [
        105.35798645019531,
        11.80555534362793,
        20.9733829498291
      ],
      "min": [
        101.48796844482422,
        0.7451309561729431,
        -11.408876419067383
      ],
      "type": "VEC3"
    },
    {
      "bufferView": 2,
      "byteOffset": 5441616,
      "componentType": 5126,
      "count": 22790,
      "max": [
        0.9999292492866516,
        0.9999715089797974,
        0.9990797638893127
      ],
      "min": [
        -0.9995176792144775,
        -0.9997669458389282,
        -0.999544620513916
      ],
      "type": "VEC3"
    },
    {
      "bufferView": 1,
      "byteOffset": 1722712,
      "componentType": 5126,
      "count": 22790,
      "max": [
        0.9129629731178284,
        0.5843769907951355
      ],
      "min": [
        0.08703699707984924,
        0.4196609854698181
      ],
      "type": "VEC2"
    },
    {
      "bufferView": 0,
      "byteOffset": 4914960,
      "componentType": 5125,
      "count": 117390,
      "type": "SCALAR"
    },
    {
      "bufferView": 2,
      "byteOffset": 5715096,
      "componentType": 5126,
      "count": 65532,
      "max": [
        105.34022521972656,
        11.260494232177734,
        20.556533813476563
      ],
      "min": [
        100.41905212402344,
        -4.007044315338135,
        -10.580942153930664
      ],
      "type": "VEC3"
    },
    {
      "bufferView": 2,
      "byteOffset": 6501480,
      "componentType": 5126,
      "count": 65532,
      "max": [
        0.9999747276306152,
        0.9999951720237732,
        0.9999799132347107
      ],
      "min": [
        -0.9999010562896729,
        -0.999946117401123,
        -0.9999751448631287
      ],
      "type": "VEC3"
    },
    {
      "bufferView": 1,
      "byteOffset": 1905032,
      "componentType": 5126,
      "count": 65532,
      "max": [
        1.0878410339355469,
        0.6022760272026062
      ],
      "min": [
        -0.08893299847841263,
        0.38584399223327637
      ],
      "type": "VEC2"
    },
    {
      "bufferView": 0,
      "byteOffset": 5384520,
      "componentType": 5125,
      "count": 307599,
      "type": "SCALAR"
    },
    {
      "bufferView": 2,
      "byteOffset": 7287864,
      "componentType": 5126,
      "count": 65532,
      "max": [
        105.37157440185547,
        11.264384269714355,
        20.540361404418945
      ],
      "min": [
        98.25727081298828,
        -8.962635040283203,
        -11.056947708129883
      ],
      "type": "VEC3"
    },
    {
      "bufferView": 2,
      "byteOffset": 8074248,
      "componentType": 5126,
      "count": 65532,
      "max": [
        0.9999619126319885,
        0.9996505379676819,
        0.9999805688858032
      ],
      "min": [
        -0.999865710735321,
        -0.9999607801437378,
        -0.9999959468841553
      ],
      "type": "VEC3"
    },
    {
      "bufferView": 1,
      "byteOffset": 2429288,
      "componentType": 5126,
      "count": 65532,
      "max": [
        1.0878410339355469,
        0.6022760272026062
      ],
      "min": [
        -0.08893299847841263,
        0.38584399223327637
      ],
      "type": "VEC2"
    },
    {
      "bufferView": 0,
      "byteOffset": 6614916,
      "componentType": 5125,
      "count": 307557,
      "type": "SCALAR"
    },
    {
      "bufferView": 2,
      "byteOffset": 8860632,
      "componentType": 5126,
      "count": 46773,
      "max": [
        100.72737121582031,
        -3.8852977752685547,
        18.67634391784668
      ],
      "min": [
        97.95077514648438,
        -10.17593765258789,
        -1.8415318727493286
      ],
      "type": "VEC3"
    },
    {
      "bufferView": 2,
      "byteOffset": 9421908,
      "componentType": 5126,
      "count": 46773,
      "max": [
        0.9999966025352478,
        0.9998903274536133,
        0.999835193157196
      ],
      "min": [
        -0.9999939799308777,
        -0.9999932646751404,
        -0.9999504685401917
      ],
      "type": "VEC3"
    },
    {
      "bufferView": 1,
      "byteOffset": 2953544,
      "componentType": 5126,
      "count": 46773,
      "max": [
        1.0878410339355469,
        0.6022760272026062
      ],
      "min": [
        -0.08893299847841263,
        0.38584399223327637
      ],
      "type": "VEC2"
    },
    {
      "bufferView": 0,
      "byteOffset": 7845144,
      "componentType": 5125,
      "count": 219552,
      "type": "SCALAR"
    },
    {
      "bufferView": 2,
      "byteOffset": 9983184,
      "componentType": 5126,
      "count": 20882,
      "max": [
        101.24400329589844,
        2.414644718170166,
        20.618757247924805
      ],
      "min": [
        96.84214782714844,
        -9.576404571533203,
        -11.032083511352539
      ],
      "type": "VEC3"
    },
    {
      "bufferView": 2,
      "byteOffset": 10233768,
      "componentType": 5126,
      "count": 20882,
      "max": [
        0.9999775886535645,
        0.9998663067817688,
        0.9999895095825195
      ],
      "min": [
        -0.9999886155128479,
        -0.9998458623886108,
        -0.999916136264801
      ],
      "type": "VEC3"
    },
    {
      "bufferView": 1,
      "byteOffset": 3327728,
      "componentType": 5126,
      "count": 20882,
      "max": [
        0.9129999876022339,
        0.5843999981880188
      ],
      "min": [
        0.08699999749660492,
        0.4196999967098236
      ],
      "type": "VEC2"
    },
    {
      "bufferView": 0,
      "byteOffset": 8723352,
      "componentType": 5125,
      "count": 107562,
      "type": "SCALAR"
    }
  ],
  "asset": {
    "extras": {
      "author": "dispeed7 (https://sketchfab.com/dispeed7)",
      "license": "CC-BY-NC-4.0 (http://creativecommons.org/licenses/by-nc/4.0/)",
      "source": "https://sketchfab.com/3d-models/jakobsen-tshirt-meski4-334cf8b6b7364a6784de2a7b531ad099",
      "title": "Jakobsen Tshirt Meski4"
    },
    "generator": "Sketchfab-12.66.0",
    "version": "2.0"
  },
  "bufferViews": [
    {
      "buffer": 0,
      "byteLength": 9153600,
      "name": "floatBufferViews",
      "target": 34963
    },
    {
      "buffer": 0,
      "byteLength": 3494784,
      "byteOffset": 9153600,
      "byteStride": 8,
      "name": "floatBufferViews",
      "target": 34962
    },
    {
      "buffer": 0,
      "byteLength": 10484352,
      "byteOffset": 12648384,
      "byteStride": 12,
      "name": "floatBufferViews",
      "target": 34962
    }
  ],
  "buffers": [
    {
      "byteLength": 23132736,
      "uri": "scene.bin"
    }
  ],
  "images": [
    {
      "uri": "textures/FABRIC_1_FRONT_1414743_baseColor.png"
    }
  ],
  "materials": [
    {
      "doubleSided": true,
      "name": "FABRIC_1_FRONT_1414743",
      "pbrMetallicRoughness": {
        "baseColorTexture": {
          "index": 0
        },
        "metallicFactor": 0.0,
        "roughnessFactor": 0.8358813795746102
      }
    },
    {
      "doubleSided": true,
      "name": "FABRIC_1_BACK_1414743",
      "pbrMetallicRoughness": {
        "baseColorTexture": {
          "index": 0
        },
        "metallicFactor": 0.2478903275501879,
        "roughnessFactor": 0.8358813795746102
      }
    },
    {
      "doubleSided": true,
      "name": "Material1415321",
      "pbrMetallicRoughness": {
        "baseColorTexture": {
          "index": 0
        },
        "metallicFactor": 0.0,
        "roughnessFactor": 0.8358813795746102
      }
    },
    {
      "doubleSided": true,
      "name": "Material1414881",
      "pbrMetallicRoughness": {
        "baseColorTexture": {
          "index": 0
        },
        "metallicFactor": 0.0,
        "roughnessFactor": 0.8358813795746102
      }
    },
    {
      "doubleSided": true,
      "name": "Material1414948",
      "pbrMetallicRoughness": {
        "baseColorTexture": {
          "index": 0
        },
        "metallicFactor": 0.0,
        "roughnessFactor": 0.8358813795746102
      }
    },
    {
      "doubleSided": true,
      "name": "Material1415440",
      "pbrMetallicRoughness": {
        "baseColorTexture": {
          "index": 0
        },
        "metallicFactor": 0.0,
        "roughnessFactor": 0.8358813795746102
      }
    },
    {
      "doubleSided": true,
      "name": "Material1415073",
      "pbrMetallicRoughness": {
        "baseColorTexture": {
          "index": 0
        },
        "metallicFactor": 0.0,
        "roughnessFactor": 0.8358813795746102
      }
    },
    {
      "doubleSided": true,
      "name": "Material1415198",
      "pbrMetallicRoughness": {
        "baseColorTexture": {
          "index": 0
        },
        "metallicFactor": 0.0,
        "roughnessFactor": 0.8358813795746102
      }
    }
  ],
  "meshes": [
    {
      "name": "Pattern2D_7088735_FABRIC_1_FRONT_1414743_0",
      "primitives": [
        {
          "attributes": {
            "NORMAL": 1,
            "POSITION": 0,
            "TEXCOORD_0": 2
          },
          "indices": 3,
          "material": 0,
          "mode": 4
        }
      ]
    },
    {
      "name": "Pattern2D_7088735_FABRIC_1_BACK_1414743_0",
      "primitives": [
        {
          "attributes": {
            "NORMAL": 5,
            "POSITION": 4,
            "TEXCOORD_0": 6
          },
          "indices": 7,
          "material": 1,
          "mode": 4
        }
      ]
    },
    {
      "name": "Pattern2D_7088735_Material1415321_0",
      "primitives": [
        {
          "attributes": {
            "NORMAL": 9,
            "POSITION": 8,
            "TEXCOORD_0": 10
          },
          "indices": 11,
          "material": 2,
          "mode": 4
        }
      ]
    },
    {
      "name": "Pattern2D_7088735_Material1415321_0",
      "primitives": [
        {
          "attributes": {
            "NORMAL": 13,
            "POSITION": 12,
            "TEXCOORD_0": 14
          },
          "indices": 15,
          "material": 2,
          "mode": 4
        }
      ]
    },
    {
      "name": "Pattern2D_7088735_Material1414881_0",
      "primitives": [
        {
          "attributes": {
            "NORMAL": 17,
            "POSITION": 16,
            "TEXCOORD_0": 18
          },
          "indices": 19,
          "material": 3,
          "mode": 4
        }
      ]
    },
    {
      "name": "Pattern2D_7088735_Material1414948_0",
      "primitives": [
        {
          "attributes": {
            "NORMAL": 21,
            "POSITION": 20,
            "TEXCOORD_0": 22
          },
          "indices": 23,
          "material": 4,
          "mode": 4
        }
      ]
    },
    {
      "name": "Pattern2D_7088735_Material1415440_0",
      "primitives": [
        {
          "attributes": {
            "NORMAL": 25,
            "POSITION": 24,
            "TEXCOORD_0": 26
          },
          "indices": 27,
          "material": 5,
          "mode": 4
        }
      ]
    },
    {
      "name": "Pattern2D_7088735_Material1415073_0",
      "primitives": [
        {
          "attributes": {
            "NORMAL": 29,
            "POSITION": 28,
            "TEXCOORD_0": 30
          },
          "indices": 31,
          "material": 6,
          "mode": 4
        }
      ]
    },
    {
      "name": "Pattern2D_7088735_Material1415073_0",
      "primitives": [
        {
          "attributes": {
            "NORMAL": 33,
            "POSITION": 32,
            "TEXCOORD_0": 34
          },
          "indices": 35,
          "material": 6,
          "mode": 4
        }
      ]
    },
    {
      "name": "Pattern2D_7088735_Material1415073_0",
      "primitives": [
        {
          "attributes": {
            "NORMAL": 37,
            "POSITION": 36,
            "TEXCOORD_0": 38
          },
          "indices": 39,
          "material": 6,
          "mode": 4
        }
      ]
    },
    {
      "name": "Pattern2D_7088735_Material1415198_0",
      "primitives": [
        {
          "attributes": {
            "NORMAL": 41,
            "POSITION": 40,
            "TEXCOORD_0": 42
          },
          "indices": 43,
          "material": 7,
          "mode": 4
        }
      ]
    }
  ],
  "nodes": [
    {
      "children": [
        1
      ],
      "matrix": [
        1.0,
        0.0,
        0.0,
        0.0,
        0.0,
        2.220446049250313e-16,
        -1.0,
        0.0,
        0.0,
        1.0,
        2.220446049250313e-16,
        0.0,
        0.0,
        0.0,
        0.0,
        1.0
      ],
      "name": "Sketchfab_model"
    },
    {
      "children": [
        2
      ],
      "matrix": [
        1.0,
        0.0,
        0.0,
        0.0,
        0.0,
        0.0,
        1.0,
        0.0,
        0.0,
        -1.0,
        0.0,
        0.0,
        0.0,
        0.0,
        0.0,
        1.0
      ],
      "name": "01-t-meski.fbx"
    },
    {
      "children": [
        3
      ],
      "name": "RootNode"
    },
    {
      "children": [
        4,
        5,
        6,
        7,
        8,
        9,
        10,
        11,
        12,
        13,
        14
      ],
      "matrix": [
        3.7748946199334e-07,
        4.999999523162828,
        1.0658140019961966e-13,
        0.0,
        2.0066961030363883e-06,
        -4.4408916749841525e-14,
        -4.999999523162439,
        0.0,
        -4.999999523162425,
        3.7748946227089573e-07,
        -2.006696103313944e-06,
        0.0,
        0.0,
        0.0,
        0.0,
        1.0
      ],
      "name": "Pattern2D_7088735"
    },
    {
      "mesh": 0,
      "name": "Pattern2D_7088735_FABRIC_1_FRONT_1414743_0"
    },
    {
      "mesh": 1,
      "name": "Pattern2D_7088735_FABRIC_1_BACK_1414743_0"
    },
    {
      "mesh": 2,
      "name": "Pattern2D_7088735_Material1415321_0"
    },
    {
      "mesh": 3,
      "name": "Pattern2D_7088735_Material1415321_0"
    },
    {
      "mesh": 4,
      "name": "Pattern2D_7088735_Material1414881_0"
    },
    {
      "mesh": 5,
      "name": "Pattern2D_7088735_Material1414948_0"
    },
    {
      "mesh": 6,
      "name": "Pattern2D_7088735_Material1415440_0"
    },
    {
      "mesh": 7,
      "name": "Pattern2D_7088735_Material1415073_0"
    },
    {
      "mesh": 8,
      "name": "Pattern2D_7088735_Material1415073_0"
    },
    {
      "mesh": 9,
      "name": "Pattern2D_7088735_Material1415073_0"
    },
    {
      "mesh": 10,
      "name": "Pattern2D_7088735_Material1415198_0"
    }
  ],
  "samplers": [
    {
      "magFilter": 9729,
      "minFilter": 9987,
      "wrapS": 10497,
      "wrapT": 10497
    }
  ],
  "scene": 0,
  "scenes": [
    {
      "name": "Sketchfab_Scene",
      "nodes": [
        0
      ]
    }
  ],
  "textures": [
    {
      "sampler": 0,
      "source": 0
    }
  ]
}
