{
  "accessors": [
    {
      "bufferView": 2,
      "componentType": 5126,
      "count": 26737,
      "max": [
        -14.459938049316406,
        55.5605354309082,
        13.896151542663574
      ],
      "min": [
        -69.51350402832031,
        -5.745025634765625,
        -13.016496658325195
      ],
      "type": "VEC3"
    },
    {
      "bufferView": 2,
      "byteOffset": 320844,
      "componentType": 5126,
      "count": 26737,
      "max": [
        0.9999791979789734,
        0.9999294281005859,
        0.9999933838844299
      ],
      "min": [
        -0.9999880790710449,
        -0.9999511241912842,
        -0.9999921321868896
      ],
      "type": "VEC3"
    },
    {
      "bufferView": 1,
      "componentType": 5126,
      "count": 26737,
      "max": [
        0.9978078007698059,
        0.9978078007698059
      ],
      "min": [
        0.0021922006271779537,
        0.014407157897949219
      ],
      "type": "VEC2"
    },
    {
      "bufferView": 0,
      "componentType": 5125,
      "count": 154872,
      "type": "SCALAR"
    }
  ],
  "asset": {
    "extras": {
      "author": "lukedew99 (https://sketchfab.com/lukedew99)",
      "license": "CC-BY-4.0 (http://creativecommons.org/licenses/by/4.0/)",
      "source": "https://sketchfab.com/3d-models/tshirt-test-34b001f315fd4565b7299813ec059ef6",
      "title": "Tshirt Test"
    },
    "generator": "Sketchfab-12.68.0",
    "version": "2.0"
  },
  "bufferViews": [
    {
      "buffer": 0,
      "byteLength": 619488,
      "name": "floatBufferViews",
      "target": 34963
    },
    {
      "buffer": 0,
      "byteLength": 213896,
      "byteOffset": 619488,
      "byteStride": 8,
      "name": "floatBufferViews",
      "target": 34962
    },
    {
      "buffer": 0,
      "byteLength": 641688,
      "byteOffset": 833384,
      "byteStride": 12,
      "name": "floatBufferViews",
      "target": 34962
    }
  ],
  "buffers": [
    {
      "byteLength": 1475072,
      "uri": "scene.bin"
    }
  ],
  "images": [
    {
      "uri": "textures/Shirt_baseColor.png"
    }
  ],
  "materials": [
    {
      "doubleSided": true,
      "name": "Shirt",
      "pbrMetallicRoughness": {
        "baseColorTexture": {
          "index": 0
        },
        "metallicFactor": 0.0,
        "roughnessFactor": 0.9524317153998911
      }
    }
  ],
  "meshes": [
    {
      "name": "T_Shirt_Shirt_0",
      "primitives": [
        {
          "attributes": {
            "NORMAL": 1,
            "POSITION": 0,
            "TEXCOORD_0": 2
          },
          "indices": 3,
          "material": 0,
          "mode": 4
        }
      ]
    }
  ],
  "nodes": [
    {
      "children": [
        1
      ],
      "matrix": [
        1.0,
        0.0,
        0.0,
        0.0,
        0.0,
        2.220446049250313e-16,
        -1.0,
        0.0,
        0.0,
        1.0,
        2.220446049250313e-16,
        0.0,
        0.0,
        0.0,
        0.0,
        1.0
      ],
      "name": "Sketchfab_model"
    },
    {
      "children": [
        2
      ],
      "matrix": [
        1.0,
        0.0,
        0.0,
        0.0,
        0.0,
        0.0,
        1.0,
        0.0,
        0.0,
        -1.0,
        0.0,
        0.0,
        0.0,
        0.0,
        0.0,
        1.0
      ],
      "name": "7a742e82b61d4fa28c5bd47cc9374fe7.fbx"
    },
    {
      "children": [
        3,
        5
      ],
      "name": "RootNode"
    },
    {
      "children": [
        4
      ],
      "matrix": [
        -0.7123708183516069,
        -0.21217767215644617,
        -0.6689607257525165,
        0.0,
        -0.15467086644135492,
        0.9772311064626789,
        -0.14524561141738124,
        0.0,
        0.6845471059286881,
        -1.3877787807814457e-17,
        -0.7289686274214122,
        0.0,
        119.2253189086914,
        60.16583251953125,
        105.89759063720703,
        1.0
      ],
      "name": "CINEMA_4D_Editor"
    },
    {
      "name": "Object_4"
    },
    {
      "children": [
        6
      ],
      "matrix": [
        1.0,
        0.0,
        0.0,
        0.0,
        0.0,
        1.0,
        0.0,
        0.0,
        0.0,
        0.0,
        1.0,
        0.0,
        41.92363739013672,
        0.0,
        0.0,
        1.0
      ],
      "name": "T_Shirt"
    },
    {
      "mesh": 0,
      "name": "T_Shirt_Shirt_0"
    }
  ],
  "samplers": [
    {
      "magFilter": 9729,
      "minFilter": 9987,
      "wrapS": 10497,
      "wrapT": 10497
    }
  ],
  "scene": 0,
  "scenes": [
    {
      "name": "Sketchfab_Scene",
      "nodes": [
        0
      ]
    }
  ],
  "textures": [
    {
      "sampler": 0,
      "source": 0
    }
  ]
}
