{
  "accessors": [
    {
      "bufferView": 2,
      "componentType": 5126,
      "count": 1334,
      "max": [
        0.4864791929721832,
        1.2276551723480225,
        0.16242802143096924
      ],
      "min": [
        -0.4881533980369568,
        0.6038199067115784,
        -0.20198766887187958
      ],
      "type": "VEC3"
    },
    {
      "bufferView": 2,
      "byteOffset": 16008,
      "componentType": 5126,
      "count": 1334,
      "max": [
        0.9997089505195618,
        0.9992950558662415,
        0.9997835159301758
      ],
      "min": [
        -0.9997245669364929,
        -0.9991402626037598,
        -0.9988640546798706
      ],
      "type": "VEC3"
    },
    {
      "bufferView": 1,
      "componentType": 5126,
      "count": 1334,
      "max": [
        0.9884999990463257,
        0.9811999797821045
      ],
      "min": [
        0.008100000210106373,
        0.02760004997253418
      ],
      "type": "VEC2"
    },
    {
      "bufferView": 0,
      "componentType": 5125,
      "count": 6015,
      "type": "SCALAR"
    }
  ],
  "asset": {
    "extras": {
      "author": "artem4er5y (https://sketchfab.com/artem4er5y)",
      "license": "CC-BY-NC-4.0 (http://creativecommons.org/licenses/by-nc/4.0/)",
      "source": "https://sketchfab.com/3d-models/hoodie-tshirt-38ad4487ddf84efbaf8cf650463cb8bf",
      "title": "hoodie_Tshirt"
    },
    "generator": "Sketchfab-15.35.0",
    "version": "2.0"
  },
  "bufferViews": [
    {
      "buffer": 0,
      "byteLength": 24060,
      "name": "floatBufferViews",
      "target": 34963
    },
    {
      "buffer": 0,
      "byteLength": 10672,
      "byteOffset": 24060,
      "byteStride": 8,
      "name": "floatBufferViews",
      "target": 34962
    },
    {
      "buffer": 0,
      "byteLength": 32016,
      "byteOffset": 34732,
      "byteStride": 12,
      "name": "floatBufferViews",
      "target": 34962
    }
  ],
  "buffers": [
    {
      "byteLength": 66748,
      "uri": "scene.bin"
    }
  ],
  "images": [
    {
      "uri": "textures/Default_baseColor.png"
    }
  ],
  "materials": [
    {
      "doubleSided": true,
      "name": "Default",
      "pbrMetallicRoughness": {
        "baseColorTexture": {
          "index": 0
        },
        "metallicFactor": 0.0,
        "roughnessFactor": 0.6
      }
    }
  ],
  "meshes": [
    {
      "name": "Null_Default_0",
      "primitives": [
        {
          "attributes": {
            "NORMAL": 1,
            "POSITION": 0,
            "TEXCOORD_0": 2
          },
          "indices": 3,
          "material": 0,
          "mode": 4
        }
      ]
    }
  ],
  "nodes": [
    {
      "children": [
        1
      ],
      "matrix": [
        1.0,
        0.0,
        0.0,
        0.0,
        0.0,
        2.220446049250313e-16,
        -1.0,
        0.0,
        0.0,
        1.0,
        2.220446049250313e-16,
        0.0,
        0.0,
        0.0,
        0.0,
        1.0
      ],
      "name": "Sketchfab_model"
    },
    {
      "children": [
        2
      ],
      "matrix": [
        0.009999999776482582,
        0.0,
        0.0,
        0.0,
        0.0,
        0.0,
        0.009999999776482582,
        0.0,
        0.0,
        -0.009999999776482582,
        0.0,
        0.0,
        0.0,
        0.0,
        0.0,
        1.0
      ],
      "name": "34ce25240de449a9aba8626b7ee8a40c.fbx"
    },
    {
      "children": [
        3,
        5
      ],
      "name": "RootNode"
    },
    {
      "children": [
        4
      ],
      "matrix": [
        -0.6551127804999501,
        -0.5172803660856363,
        -0.5506798232075822,
        0.0,
        -0.3959694369081138,
        0.8558159982509734,
        -0.33284708526943896,
        0.0,
        0.6434558647337789,
        -1.1102230246251565e-16,
        -0.765483213493088,
        0.0,
        1.8415640592575073,
        1.950588583946228,
        1.586859107017517,
        1.0
      ],
      "name": "CINEMA_4D_Editor"
    },
    {
      "name": "Object_4"
    },
    {
      "children": [
        6
      ],
      "matrix": [
        1.0,
        0.0,
        0.0,
        0.0,
        0.0,
        1.0,
        0.0,
        0.0,
        0.0,
        0.0,
        1.0,
        0.0,
        0.0,
        -0.30746912956237793,
        0.008541974239051342,
        1.0
      ],
      "name": "Null"
    },
    {
      "mesh": 0,
      "name": "Null_Default_0"
    }
  ],
  "samplers": [
    {
      "magFilter": 9729,
      "minFilter": 9987,
      "wrapS": 10497,
      "wrapT": 10497
    }
  ],
  "scene": 0,
  "scenes": [
    {
      "name": "Sketchfab_Scene",
      "nodes": [
        0
      ]
    }
  ],
  "textures": [
    {
      "sampler": 0,
      "source": 0
    }
  ]
}
